<?xml version="1.0" encoding="UTF-8"?><svg id="a" xmlns="http://www.w3.org/2000/svg" viewBox="0 0 100 100"><g><rect x="1.5" y="1.5" width="97" height="97" style="fill:#081965;"/><path d="M97,3V97H3V3H97m3-3H0V100H100V0h0Z" style="fill:#01a2fd;"/></g><path d="M70.83,75.77c-2.61,1.31-7.84,2.61-14.54,2.61-15.52,0-27.2-9.8-27.2-27.85s11.68-28.91,28.75-28.91c6.86,0,11.19,1.47,13.07,2.45l-1.72,5.8c-2.69-1.31-6.53-2.29-11.11-2.29-12.9,0-21.48,8.25-21.48,22.7,0,13.48,7.76,22.13,21.15,22.13,4.33,0,8.74-.9,11.6-2.29l1.47,5.64Z" style="fill:#fff;"/></svg>